<svg width="24" height="24" viewBox="0 0 24 24" fill="none" xmlns="http://www.w3.org/2000/svg">
<path d="M7.6875 5C7.13522 5 6.6875 5.44772 6.6875 6C6.6875 6.55228 7.13522 7 7.6875 7V5ZM17.25 6L18.25 6V5H17.25V6ZM16.25 15C16.25 15.5523 16.6977 16 17.25 16C17.8023 16 18.25 15.5523 18.25 15H16.25ZM3.81464 17.2718C3.41246 17.6503 3.39328 18.2832 3.7718 18.6854C4.15032 19.0875 4.78319 19.1067 5.18536 18.7282L3.81464 17.2718ZM7.6875 7H17.25V5H7.6875V7ZM16.25 6L16.25 15H18.25L18.25 6L16.25 6ZM16.5646 5.2718L3.81464 17.2718L5.18536 18.7282L17.9354 6.7282L16.5646 5.2718Z" fill="#254FE7"/>
</svg>
