<svg width="56" height="56" viewBox="0 0 56 56" fill="none" xmlns="http://www.w3.org/2000/svg">
<rect width="56" height="56" rx="8" fill="#254FE7"/>
<path d="M16.3331 29.9666V34.6499C16.3331 35.8666 16.9998 36.9999 18.0665 37.5832L26.3998 42.1332C27.3998 42.6832 28.5998 42.6832 29.5998 42.1332L37.9331 37.5832C38.9998 36.9999 39.6665 35.8666 39.6665 34.6499V29.9666L29.5998 35.4666C28.5998 36.0166 27.3998 36.0166 26.3998 35.4666L16.3331 29.9666ZM26.3998 13.8666L12.3498 21.5332C11.1998 22.1666 11.1998 23.8332 12.3498 24.4666L26.3998 32.1332C27.3998 32.6832 28.5998 32.6832 29.5998 32.1332L42.9998 24.8166V34.6666C42.9998 35.5832 43.7498 36.3332 44.6665 36.3332C45.5831 36.3332 46.3331 35.5832 46.3331 34.6666V23.9832C46.3331 23.3666 45.9998 22.8166 45.4665 22.5166L29.5998 13.8666C28.5998 13.3332 27.3998 13.3332 26.3998 13.8666Z" fill="white"/>
</svg>
