<svg width="56" height="56" viewBox="0 0 56 56" fill="none" xmlns="http://www.w3.org/2000/svg">
<rect width="56" height="56" rx="8" fill="#254FE7"/>
<path d="M39.6667 13H16.3333C14.5 13 13 14.5 13 16.3333V39.6667C13 41.5 14.5 43 16.3333 43H39.6667C41.5 43 43 41.5 43 39.6667V16.3333C43 14.5 41.5 13 39.6667 13ZM29.6667 36.3333H21.3333C20.4167 36.3333 19.6667 35.5833 19.6667 34.6667C19.6667 33.75 20.4167 33 21.3333 33H29.6667C30.5833 33 31.3333 33.75 31.3333 34.6667C31.3333 35.5833 30.5833 36.3333 29.6667 36.3333ZM34.6667 29.6667H21.3333C20.4167 29.6667 19.6667 28.9167 19.6667 28C19.6667 27.0833 20.4167 26.3333 21.3333 26.3333H34.6667C35.5833 26.3333 36.3333 27.0833 36.3333 28C36.3333 28.9167 35.5833 29.6667 34.6667 29.6667ZM34.6667 23H21.3333C20.4167 23 19.6667 22.25 19.6667 21.3333C19.6667 20.4167 20.4167 19.6667 21.3333 19.6667H34.6667C35.5833 19.6667 36.3333 20.4167 36.3333 21.3333C36.3333 22.25 35.5833 23 34.6667 23Z" fill="white"/>
</svg>
