<svg width="56" height="56" viewBox="0 0 56 56" fill="none" xmlns="http://www.w3.org/2000/svg">
<rect width="56" height="56" rx="8" fill="#254FE7"/>
<path d="M28.5837 34.0833L33.2337 29.4333C33.7503 28.9167 33.3837 28.0167 32.6503 28.0167H29.667V14.6667C29.667 13.75 28.917 13 28.0003 13C27.0837 13 26.3337 13.75 26.3337 14.6667V28H23.3503C22.6003 28 22.2337 28.9 22.767 29.4167L27.417 34.0667C27.7337 34.4 28.267 34.4 28.5837 34.0833ZM43.0003 13H34.6503C33.7503 13 33.0003 13.75 33.0003 14.65C33.0003 15.5667 33.7503 16.3 34.6503 16.3H41.3337C42.2503 16.3 43.0003 17.05 43.0003 17.9667V38.0167C43.0003 38.9333 42.2503 39.6833 41.3337 39.6833H14.667C13.7503 39.6833 13.0003 38.9333 13.0003 38.0167V17.9833C13.0003 17.0667 13.7503 16.3167 14.667 16.3167H21.3503C22.2503 16.3167 23.0003 15.5667 23.0003 14.6667C23.0003 13.75 22.2503 13 21.3503 13H13.0003C11.167 13 9.66699 14.5 9.66699 16.3333V39.6667C9.66699 41.5 11.167 43 13.0003 43H43.0003C44.8337 43 46.3337 41.5 46.3337 39.6667V16.3333C46.3337 14.5 44.8337 13 43.0003 13Z" fill="white"/>
</svg>
